<svg height="452pt" viewBox="-27 0 452 452.092" width="452pt" xmlns="http://www.w3.org/2000/svg"><path d="m226.691406 253.347656c-5.140625 0-10.160156-.441406-15.039062-1.300781v54.757813h.039062v31.222656c-.019531 0-.019531 0-.039062 0v74.777344c4.839844-.558594 9.859375-.859376 15.019531-.859376 5.179687 0 10.21875.300782 15.058594.859376v-160.757813c-4.878907.859375-9.898438 1.300781-15.039063 1.300781zm0 0" fill="#f16c7a"/><path d="m243.660156 249.746094c-.679687-.566406-1.566406-.800782-2.449218-.652344-9.457032 1.667969-19.582032 1.667969-29.039063 0-.878906-.148438-1.773437.085938-2.453125.652344-.675781.570312-1.070312 1.414062-1.070312 2.300781v54.757813c0 1.65625 1.339843 3 3 3h.039062c1.660156 0 2.980469-1.34375 2.980469-3 0-.117188-.007813-.230469-.019531-.34375v-50.914063c7.917968 1.0625 16.160156 1.0625 24.078124 0v153.933594c-7.925781-.707031-16.121093-.710938-24.078124 0v-71.101563c.011718-.117187.019531-.234375.019531-.351562 0-1.65625-1.363281-3-3.019531-3-1.660157 0-3 1.34375-3 3v74.777344c0 .855468.367187 1.671874 1.003906 2.242187.636718.566406 1.492187.839844 2.339844.738281 9.644531-1.117187 19.796874-1.109375 29.390624 0 .113282.015625.230469.019532.34375.019532.730469 0 1.445313-.265626 1.996094-.757813.640625-.570313 1.003906-1.386719 1.003906-2.242187v-160.757813c.003907-.886719-.386718-1.730469-1.066406-2.300781zm0 0" fill="#3a312a"/><path d="m226.683594 411.957031c-38.863282 0-70.371094 16.621094-70.371094 37.136719h140.765625c0-20.515625-31.511719-37.136719-70.394531-37.136719zm0 0" fill="#d7e057"/><path d="m226.683594 408.957031c-41.144532 0-73.371094 17.628907-73.371094 40.136719 0 1.652344 1.339844 3 3 3h140.765625c1.65625 0 3-1.347656 3-3 0-22.507812-32.238281-40.136719-73.394531-40.136719zm-67.097656 37.136719c3.109374-17.164062 32.570312-31.136719 67.097656-31.136719 34.539062 0 64.011718 13.972657 67.121094 31.136719zm0 0" fill="#3a312a"/><path d="m226.675781 414.953125c-3.28125 0-6.5.117187-9.660156.359375 30.21875 2.320312 54.636719 15.238281 57.457031 30.78125h19.339844c-3.117188-17.160156-32.597656-31.140625-67.136719-31.140625zm0 0" fill="#b9c239"/><path d="m58.730469 73.382812c0 43.082032 33.921875 80.6875 84.308593 100.742188.460938 43.828125 37.730469 79.226562 83.65625 79.226562 45.925782 0 83.191407-35.398437 83.65625-79.226562 50.382813-20.054688 84.304688-57.660156 84.304688-100.742188zm0 0" fill="#fce8cb"/><path d="m394.65625 70.382812h-102.058594c-1.660156 0-3 1.34375-3 3s1.339844 3 3 3h99c-1.527344 39.050782-32.785156 75.226563-82.359375 94.957032-1.128906.449218-1.875 1.539062-1.886719 2.753906-.445312 42.046875-36.628906 76.261719-80.65625 76.261719-44.03125 0-80.214843-34.210938-80.65625-76.261719-.011718-1.214844-.761718-2.304688-1.890624-2.753906-49.570313-19.730469-80.832032-55.90625-82.355469-94.957032h201.003906c1.65625 0 3-1.34375 3-3s-1.34375-3-3-3h-204.066406c-1.65625 0-3 1.34375-3 3 0 42.207032 32.265625 81.445313 84.355469 102.785157 1.585937 44.398437 40.003906 80.1875 86.609374 80.1875 46.601563 0 85.019532-35.789063 86.609376-80.1875 52.085937-21.339844 84.351562-60.578125 84.351562-102.785157 0-1.65625-1.34375-3-3-3zm0 0" fill="#3a312a"/><path d="m86.054688 136.878906c14.476562 15.300782 34.007812 28.101563 56.984374 37.246094.460938 43.828125 37.730469 79.226562 83.65625 79.226562 45.925782 0 83.191407-35.398437 83.65625-79.226562 22.972657-9.144531 42.507813-21.945312 56.980469-37.246094zm0 0" fill="#87796f"/><path d="m370.089844 135.695312c-.472656-1.101562-1.558594-1.816406-2.753906-1.816406h-281.28125c-1.195313 0-2.28125.714844-2.753907 1.816406-.476562 1.097657-.246093 2.375.574219 3.246094 14.367188 15.183594 33.769531 28.03125 56.210938 37.222656 1.585937 44.398438 40.003906 80.1875 86.609374 80.1875 46.601563 0 85.019532-35.789062 86.609376-80.1875 22.4375-9.195312 41.839843-22.039062 56.207031-37.222656.824219-.871094 1.050781-2.148437.578125-3.246094zm-60.847656 35.644532c-1.128907.449218-1.878907 1.539062-1.890626 2.753906-.445312 42.046875-36.625 76.261719-80.65625 76.261719s-80.210937-34.210938-80.65625-76.261719c-.011718-1.214844-.757812-2.304688-1.890624-2.753906-19.839844-7.898438-37.269532-18.699219-50.832032-31.460938h266.757813c-13.5625 12.761719-30.988281 23.5625-50.832031 31.460938zm0 0" fill="#3a312a"/><path d="m81.238281 3.351562c-39.105469-3.886718-73.953125 24.660157-77.839843 63.765626-3.886719 39.101562 24.664062 73.949218 63.765624 77.835937 39.105469 3.886719 73.953126-24.660156 77.839844-63.761719 3.886719-39.105468-24.664062-73.953125-63.765625-77.839844zm0 0" fill="#fce8cb"/><path d="m74.199219 0c-40.886719 0-74.152344 33.265625-74.152344 74.152344 0 40.886718 33.261719 74.148437 74.152344 74.148437 40.886719 0 74.152343-33.261719 74.152343-74.148437-.003906-40.890625-33.265624-74.152344-74.152343-74.152344zm0 142.300781c-37.582031 0-68.152344-30.570312-68.152344-68.148437 0-37.582032 30.570313-68.152344 68.152344-68.152344 37.578125 0 68.152343 30.570312 68.152343 68.152344-.003906 37.578125-30.574218 68.148437-68.152343 68.148437zm0 0" fill="#3a312a"/><path d="m123.691406 71.917969c-1.238281-27.335938-24.398437-48.492188-51.730468-47.253907-27.332032 1.234376-48.488282 24.398438-47.25 51.730469 1.234374 27.335938 24.394531 48.492188 51.726562 47.253907 27.335938-1.238282 48.488281-24.398438 47.253906-51.730469zm0 0" fill="#d7e057"/><g fill="#3a312a"><path d="m74.199219 21.609375c-28.972657 0-52.542969 23.570313-52.542969 52.542969 0 28.96875 23.570312 52.539062 52.542969 52.539062 28.96875 0 52.539062-23.570312 52.539062-52.539062 0-28.972656-23.570312-52.542969-52.539062-52.542969zm0 99.082031c-25.664063 0-46.542969-20.878906-46.542969-46.539062 0-25.664063 20.878906-46.542969 46.542969-46.542969 25.660156 0 46.539062 20.878906 46.539062 46.542969 0 25.660156-20.878906 46.539062-46.539062 46.539062zm0 0"/><path d="m74.199219 21.609375c-1.660157 0-3 1.34375-3 3v99.082031c0 1.65625 1.339843 3 3 3 1.65625 0 3-1.34375 3-3v-99.082031c0-1.65625-1.34375-3-3-3zm0 0"/><path d="m123.738281 71.152344h-99.082031c-1.660156 0-3 1.34375-3 3s1.339844 3 3 3h99.082031c1.65625 0 3-1.34375 3-3s-1.34375-3-3-3zm0 0"/><path d="m111.347656 37c-1.171875-1.171875-3.070312-1.171875-4.242187 0l-70.058594 70.0625c-1.171875 1.171875-1.171875 3.070312 0 4.242188.585937.585937 1.351563.878906 2.117187.878906.769532 0 1.539063-.292969 2.125-.878906l70.0625-70.0625c1.167969-1.171876 1.167969-3.070313-.003906-4.242188zm0 0"/><path d="m111.347656 107.0625-70.058594-70.0625c-1.171874-1.171875-3.070312-1.171875-4.242187 0s-1.171875 3.070312 0 4.242188l70.0625 70.0625c.585937.585937 1.351563.878906 2.121094.878906.765625 0 1.535156-.292969 2.121093-.878906 1.167969-1.171876 1.167969-3.070313-.003906-4.242188zm0 0"/></g><path d="m354.695312 76.378906c-.800781 20.640625-9.921874 40.480469-25.640624 57.5h36.898437c15.722656-17.019531 24.839844-36.859375 25.640625-57.5zm0 0" fill="#decaad"/><path d="m323.175781 139.878906c-13.5625 12.761719-30.980469 23.5625-50.820312 31.460938-1.140625.441406-1.882813 1.539062-1.902344 2.761718-.378906 35.976563-26.9375 66.238282-62.199219 74.199219 5.921875 1.359375 12.101563 2.058594 18.441406 2.058594 44.039063 0 80.21875-34.21875 80.660157-76.257813 0-1.222656.757812-2.320312 1.878906-2.761718 19.839844-7.898438 37.28125-18.699219 50.839844-31.460938zm0 0" fill="#695b51"/><path d="m346.742188 304.558594c-1.945313 23.128906-26.046876 26.78125-26.046876 26.78125 20.691407.972656 25.847657 28.121094 25.847657 28.121094.441406-19.355469 26.644531-28.40625 26.644531-28.40625-19.628906-1.175782-26.445312-26.496094-26.445312-26.496094zm0 0" fill="#d7e057"/><path d="m373.367188 328.058594c-17.210938-1.03125-23.664063-24.046875-23.726563-24.28125-.382813-1.40625-1.730469-2.320313-3.167969-2.207032-1.449218.132813-2.597656 1.285157-2.71875 2.734376-1.71875 20.433593-22.628906 23.929687-23.511718 24.066406-1.523438.230468-2.625 1.582031-2.542969 3.121094.078125 1.539062 1.3125 2.769531 2.851562 2.84375 18.058594.851562 23 25.4375 23.046875 25.6875.273438 1.421874 1.519532 2.433593 2.945313 2.433593.082031 0 .167969-.003906.25-.011719 1.527343-.128906 2.714843-1.386718 2.75-2.917968.390625-17.019532 24.386719-25.554688 24.628906-25.640625 1.347656-.464844 2.183594-1.828125 1.984375-3.242188-.195312-1.417969-1.359375-2.5-2.789062-2.585937zm-27.132813 20.691406c-2.710937-6.261719-7.417969-13.816406-15.175781-17.753906 5.863281-2.808594 12.820312-7.824219 16.40625-16.546875 3.101562 6.144531 8.398437 13.761719 16.667968 17.445312-6.015624 3.28125-13.84375 8.8125-17.898437 16.855469zm0 0" fill="#3a312a"/><path d="m303.347656 338.523438c-1.378906 16.355468-18.425781 18.9375-18.425781 18.9375 14.636719.691406 18.285156 19.890624 18.285156 19.890624.3125-13.691406 18.84375-20.089843 18.84375-20.089843-13.882812-.832031-18.703125-18.738281-18.703125-18.738281zm0 0" fill="#d7e057"/><path d="m322.230469 354.265625c-11.53125-.691406-15.945313-16.375-15.988281-16.53125-.378907-1.402344-1.699219-2.34375-3.164063-2.203125-1.453125.128906-2.597656 1.285156-2.71875 2.734375-1.160156 13.742187-15.292969 16.132813-15.886719 16.226563-1.523437.230468-2.625 1.582031-2.542968 3.121093.078124 1.539063 1.3125 2.769531 2.851562 2.84375 12.070312.566407 15.449219 17.289063 15.480469 17.453125.269531 1.425782 1.515625 2.441406 2.941406 2.441406.085937 0 .167969-.003906.25-.011718 1.53125-.128906 2.71875-1.386719 2.753906-2.921875.257813-11.417969 16.660157-17.265625 16.824219-17.320313 1.351562-.46875 2.1875-1.828125 1.992188-3.246094-.195313-1.417968-1.367188-2.5-2.792969-2.585937zm-19.171875 13.589844c-1.847656-3.769531-4.679688-7.894531-8.894532-10.558594 3.710938-2.082031 7.394532-5.261719 9.742188-9.835937 2.117188 3.75 5.308594 7.910156 9.882812 10.449218-3.699218 2.203125-7.976562 5.480469-10.730468 9.945313zm0 0" fill="#3a312a"/><path d="m303.347656 285.207031c-1.378906 16.355469-18.425781 18.941407-18.425781 18.941407 14.636719.6875 18.285156 19.886718 18.285156 19.886718.3125-13.6875 18.84375-20.089844 18.84375-20.089844-13.882812-.832031-18.703125-18.738281-18.703125-18.738281zm0 0" fill="#d7e057"/><path d="m322.226562 300.949219c-11.53125-.6875-15.941406-16.371094-15.984374-16.527344-.378907-1.40625-1.699219-2.332031-3.164063-2.207031-1.453125.132812-2.597656 1.289062-2.71875 2.738281-1.160156 13.742187-15.292969 16.132813-15.886719 16.226563-1.523437.230468-2.625 1.582031-2.542968 3.121093.078124 1.542969 1.3125 2.769531 2.851562 2.839844 12.070312.570313 15.449219 17.292969 15.480469 17.457031.269531 1.425782 1.515625 2.4375 2.945312 2.4375.082031 0 .164063-.003906.246094-.007812 1.53125-.128906 2.71875-1.386719 2.753906-2.921875.257813-11.417969 16.660157-17.269531 16.824219-17.324219 1.351562-.46875 2.1875-1.828125 1.992188-3.246094-.195313-1.417968-1.367188-2.5-2.796876-2.585937zm-19.167968 13.589843c-1.847656-3.769531-4.679688-7.894531-8.894532-10.558593 3.710938-2.082031 7.394532-5.257813 9.742188-9.832031 2.117188 3.746093 5.308594 7.90625 9.882812 10.449218-3.699218 2.199219-7.976562 5.476563-10.730468 9.941406zm0 0" fill="#3a312a"/></svg>