<svg height="451pt" viewBox="0 0 451 451.98881" width="451pt" xmlns="http://www.w3.org/2000/svg"><path d="m3.496094 4.824219v412.351562c0 17.570313 14.242187 31.816407 31.8125 31.816407h412.355468c0-245.308594-198.863281-444.167969-444.167968-444.167969zm0 0" fill="#fce8cb"/><path d="m319.691406 132.792969c-84.460937-84.457031-196.753906-130.96875-316.195312-130.96875-1.65625 0-3 1.339843-3 3v23.925781c0 1.65625 1.34375 3 3 3s3-1.34375 3-3v-20.917969c116.71875.773438 226.332031 46.585938 308.953125 129.207031 82.617187 82.621094 128.433593 192.234376 129.203125 308.953126h-409.34375c-15.886719 0-28.8125-12.925782-28.8125-28.8125v-357.449219c0-1.65625-1.34375-3-3-3s-3 1.34375-3 3v357.445312c0 19.195313 15.617187 34.8125 34.8125 34.8125h412.355468c1.65625 0 3-1.339843 3-3 0-119.441406-46.515624-231.734375-130.972656-316.195312zm0 0" fill="#3a312a"/><path d="m3.496094 85.140625v332.035156c0 17.570313 14.242187 31.816407 31.8125 31.816407h332.039062c-.003906-200.953126-162.902344-363.851563-363.851562-363.851563zm0 0" fill="#d7e057"/><path d="m3.496094 82.140625c-1.65625 0-3 1.339844-3 3v332.035156c0 19.195313 15.617187 34.8125 34.8125 34.8125h332.039062c1.65625 0 3-1.339843 3-3 0-202.28125-164.570312-366.847656-366.851562-366.847656zm31.8125 363.851563c-15.886719 0-28.8125-12.925782-28.8125-28.816407v-329.023437c196.609375 1.601562 356.234375 161.226562 357.839844 357.839844zm0 0" fill="#3a312a"/><path d="m124.964844 124.039062c-24.421875-3.007812-46.65625 14.351563-49.664063 38.773438-3.003906 24.421875 14.355469 46.65625 38.773438 49.664062 24.421875 3.003907 46.65625-14.355468 49.664062-38.773437 3.007813-24.421875-14.351562-46.65625-38.773437-49.664063zm0 0" fill="#f16c7a"/><path d="m119.519531 120.699219c-26.21875 0-47.550781 21.332031-47.550781 47.554687 0 26.21875 21.332031 47.550782 47.550781 47.550782 26.222657 0 47.554688-21.332032 47.554688-47.550782 0-26.222656-21.332031-47.554687-47.554688-47.554687zm0 89.109375c-22.910156 0-41.550781-18.640625-41.550781-41.554688 0-22.910156 18.640625-41.550781 41.550781-41.550781 22.914063 0 41.554688 18.640625 41.554688 41.550781s-18.640625 41.554688-41.554688 41.554688zm0 0" fill="#3a312a"/><path d="m342.191406 379.402344c0 24.605468-19.949218 44.550781-44.554687 44.550781s-44.550781-19.945313-44.550781-44.550781c0-24.605469 19.945312-44.550782 44.550781-44.550782s44.554687 19.945313 44.554687 44.550782zm0 0" fill="#f16c7a"/><path d="m297.636719 331.851562c-26.21875 0-47.550781 21.332032-47.550781 47.550782s21.332031 47.550781 47.550781 47.550781c26.222656 0 47.554687-21.332031 47.554687-47.550781s-21.332031-47.550782-47.554687-47.550782zm0 89.101563c-22.910157 0-41.550781-18.636719-41.550781-41.550781 0-22.910156 18.640624-41.550782 41.550781-41.550782 22.914062 0 41.554687 18.640626 41.554687 41.550782 0 22.914062-18.640625 41.550781-41.554687 41.550781zm0 0" fill="#3a312a"/><path d="m90.140625 340.613281c-22.730469-9.414062-48.792969 1.382813-58.210937 24.113281-9.417969 22.734376 1.378906 48.800782 24.109374 58.214844 22.734376 9.417969 48.796876-1.378906 58.214844-24.113281 9.414063-22.734375-1.378906-48.796875-24.113281-58.214844zm0 0" fill="#f16c7a"/><path d="m73.082031 334.21875c-26.222656 0-47.554687 21.332031-47.554687 47.554688 0 26.21875 21.332031 47.550781 47.554687 47.550781 26.21875 0 47.550781-21.332031 47.550781-47.550781 0-26.222657-21.332031-47.554688-47.550781-47.554688zm0 89.105469c-22.914062 0-41.554687-18.640625-41.554687-41.550781 0-22.914063 18.640625-41.554688 41.554687-41.554688 22.910157 0 41.550781 18.640625 41.550781 41.554688 0 22.910156-18.640624 41.550781-41.550781 41.550781zm0 0" fill="#3a312a"/><path d="m213.980469 250.066406c-3.886719-2.105468-7.777344-3.890625-11.488281-5.5-.277344.320313-.539063.660156-.792969 1.011719l-2.984375 4.238281-3.453125 4.898438-2.921875 4.140625c-4.515625 6.40625-2.425782 15.316406 4.460937 19.050781l3.246094 1.757812c6.859375 3.714844 15.421875.648438 18.363281-6.578124l6.109375-15.042969c.171875-.421875.324219-.851563.441407-1.285157-3.402344-2.253906-7.050782-4.5625-10.980469-6.691406zm0 0" fill="#fce8cb"/><path d="m226.617188 254.253906c-2.910157-1.925781-6.816407-4.445312-11.203126-6.824218-4.308593-2.335938-8.53125-4.226563-11.726562-5.617188-1.199219-.519531-2.59375-.207031-3.457031.777344-.34375.394531-.671875.816406-.980469 1.257812l-9.363281 13.277344c-2.644531 3.753906-3.558594 8.46875-2.515625 12.941406 1.046875 4.464844 3.964844 8.285156 8 10.472656l3.246094 1.757813c2.375 1.289063 5.015624 1.941406 7.667968 1.941406 1.832032 0 3.664063-.3125 5.421875-.941406 4.300781-1.539063 7.757813-4.851563 9.476563-9.085937l6.117187-15.046876c.214844-.527343.398438-1.0625.546875-1.601562.351563-1.25-.144531-2.585938-1.230468-3.308594zm-10.992188 17.699219c-1.078125 2.65625-3.242188 4.730469-5.941406 5.699219-2.695313.964844-5.6875.738281-8.207032-.628906l-3.246093-1.757813c-2.53125-1.371094-4.359375-3.765625-5.015625-6.566406s-.082032-5.761719 1.574218-8.113281l6.378907-9.042969 2.300781-3.269531c2.710938 1.207031 5.886719 2.699218 9.082031 4.429687 3.261719 1.769531 6.269531 3.632813 8.765625 5.25zm0 0" fill="#3a312a"/><path d="m237.375 206.894531c-13.875-7.519531-29.347656-8.0625-41.25-2.6875l-5.398438 3.023438c-4.226562 2.878906-7.765624 6.667969-10.277343 11.300781-9.828125 18.136719 11.921875 19.828125 33.53125 31.539062 21.613281 11.707032 34.902343 29.007813 44.730469 10.867188 9.828124-18.136719.277343-42.332031-21.335938-54.042969zm0 0" fill="#87796f"/><path d="m262.625 230.40625c-4.289062-10.863281-12.75-20.148438-23.820312-26.148438-14.253907-7.722656-30.667969-8.761718-43.914063-2.785156-.078125.035156-.152344.074219-.226563.117188l-5.398437 3.019531c-.074219.042969-.148437.085937-.222656.136719-4.765625 3.242187-8.542969 7.402344-11.226563 12.355468-2.789062 5.140626-3.480468 9.519532-2.125 13.394532 2.441406 6.980468 10.734375 10.5 21.234375 14.949218 4.828125 2.050782 10.296875 4.371094 15.628907 7.257813 5.332031 2.886719 10.261718 6.203125 14.613281 9.128906 8.164062 5.492188 14.847656 9.984375 21.136719 9.984375 1.003906 0 1.996093-.117187 2.984374-.359375 3.984376-.976562 7.277344-3.953125 10.0625-9.09375 5.179688-9.558593 5.632813-20.910156 1.273438-31.957031zm-6.550781 29.101562c-1.9375 3.570313-3.96875 5.574219-6.21875 6.128907-4.625 1.136719-11.4375-3.464844-19.34375-8.78125-4.460938-3-9.519531-6.402344-15.101563-9.425781-5.582031-3.023438-11.195312-5.40625-16.144531-7.503907-8.773437-3.722656-16.347656-6.933593-17.914063-11.410156-.765624-2.1875-.199218-4.984375 1.734376-8.554687 2.207031-4.066407 5.308593-7.492188 9.222656-10.179688l5.164062-2.890625c11.53125-5.15625 25.898438-4.171875 38.472656 2.640625 9.832032 5.328125 17.324219 13.527344 21.097657 23.078125 3.699219 9.367187 3.351562 18.921875-.96875 26.898437zm0 0" fill="#3a312a"/><path d="m187.300781 369.957031-3.453125-15.863281c-.097656-.449219-.214844-.886719-.359375-1.3125-4.078125.066406-8.398437.222656-12.839843.6875-4.398438.457031-8.617188 1.183594-12.589844 1.953125-.046875.417969-.070313.84375-.082032 1.277344l-.066406 5.1875-.082031 5.988281-.070313 5.070312c-.105468 7.835938 6.648438 14.007813 14.441407 13.195313l3.671875-.382813c7.753906-.808593 13.085937-8.175781 11.429687-15.800781zm0 0" fill="#fce8cb"/><path d="m190.230469 369.320312-3.457031-15.878906c-.121094-.550781-.269532-1.09375-.445313-1.621094-.421875-1.234374-1.589844-2.011718-2.890625-2.039062-3.496094.054688-8.148438.1875-13.101562.703125-4.875.503906-9.425782 1.328125-12.847657 1.992187-1.289062.246094-2.261719 1.296876-2.414062 2.597657-.058594.511719-.089844 1.039062-.101563 1.585937l-.21875 16.242188c-.0625 4.589844 1.84375 9 5.234375 12.097656 2.972657 2.71875 6.859375 4.207031 10.851563 4.207031.554687 0 1.109375-.027343 1.664062-.085937l3.671875-.378906c4.546875-.472657 8.6875-2.867188 11.367188-6.570313 2.679687-3.699219 3.660156-8.386719 2.6875-12.851563zm-7.546875 9.335938c-1.679688 2.320312-4.277344 3.824219-7.125 4.117188l-3.671875.382812c-2.875.296875-5.722657-.644531-7.851563-2.585938-2.125-1.945312-3.320312-4.707031-3.28125-7.585937l.152344-11.058594.054688-4c2.914062-.535156 6.375-1.097656 9.996093-1.476562 3.683594-.382813 7.21875-.542969 10.199219-.617188l3.210938 14.761719c.609374 2.804688-.003907 5.738281-1.683594 8.0625zm0 0" fill="#3a312a"/><path d="m213.695312 337.167969c-2.136718-20.515625-23.6875-35.085938-48.136718-32.542969-15.695313 1.636719-28.769532 9.929688-35.550782 21.085938l-2.75 5.542968c-1.863281 4.765625-2.640624 9.890625-2.09375 15.132813 2.132813 20.519531 21.035157 9.625 45.480469 7.082031 24.449219-2.546875 45.1875 4.214844 43.050781-16.300781zm0 0" fill="#87796f"/><path d="m216.679688 336.855469c-1.125-10.820313-7.164063-20.441407-17.003907-27.089844-9.675781-6.542969-21.902343-9.433594-34.425781-8.121094-16.125 1.679688-30.257812 10.09375-37.808594 22.511719-.039062.074219-.085937.148438-.121094.222656l-2.75 5.542969c-.039062.078125-.074218.160156-.109374.242187-2.097657 5.367188-2.867188 10.929688-2.285157 16.535157.605469 5.8125 2.507813 9.824219 5.816407 12.253906 2.667968 1.960937 5.914062 2.6875 9.691406 2.6875 4.648437 0 10.105468-1.101563 16.277344-2.347656 5.140624-1.035157 10.964843-2.214844 16.996093-2.84375 6.03125-.625 11.972657-.675781 17.214844-.71875 11.40625-.09375 20.414063-.167969 25.339844-5.683594 2.738281-3.058594 3.773437-7.375 3.167969-13.191406zm-7.640626 9.191406c-3.160156 3.535156-11.386718 3.605469-20.917968 3.683594-5.375.042969-11.46875.09375-17.785156.753906-6.316407.65625-12.292969 1.863281-17.5625 2.925781-9.34375 1.886719-17.40625 3.515625-21.226563.707032-1.867187-1.371094-2.980469-4.003907-3.402344-8.039063-.476562-4.597656.148438-9.175781 1.863281-13.609375l2.625-5.300781c6.597657-10.769531 19.011719-18.074219 33.238282-19.554688 11.132812-1.160156 21.933594 1.371094 30.441406 7.125 8.347656 5.636719 13.460938 13.714844 14.398438 22.742188.421874 4.035156-.125 6.839843-1.671876 8.566406zm0 0" fill="#3a312a"/><path d="m97.894531 275.851562-12.167969-10.75c-.34375-.300781-.699218-.585937-1.066406-.84375-3.25 2.464844-6.640625 5.144532-9.949218 8.148438-3.273438 2.96875-6.246094 6.050781-8.996094 9.019531.210937.367188.445312.726563.695312 1.082031l3.011719 4.222657 3.476563 4.878906 2.941406 4.128906c4.550781 6.378907 13.648437 7.359375 19.449218 2.097657l2.738282-2.480469c5.773437-5.242188 5.714844-14.335938-.132813-19.503907zm0 0" fill="#fce8cb"/><path d="m99.882812 273.605469-12.179687-10.757813c-.425781-.375-.867187-.726562-1.328125-1.046875-1.066406-.742187-2.488281-.714843-3.527344.070313-2.792968 2.117187-6.46875 4.972656-10.152344 8.3125-3.632812 3.292968-6.8125 6.648437-9.179687 9.207031-.886719.957031-1.054687 2.375-.414063 3.511719.257813.457031.550782.902344.863282 1.347656l9.429687 13.226562c2.667969 3.742188 6.8125 6.167969 11.378907 6.660157.574218.058593 1.148437.089843 1.71875.089843 3.972656 0 7.839843-1.476562 10.8125-4.171874l2.734374-2.480469c3.382813-3.070313 5.308594-7.449219 5.28125-12.015625-.03125-4.570313-2.011718-8.925782-5.4375-11.953125zm-3.875 19.527343-2.734374 2.480469c-2.128907 1.933594-4.992188 2.867188-7.859376 2.558594-2.863281-.308594-5.460937-1.832031-7.128906-4.175781l-6.421875-9.007813-2.320312-3.257812c2.035156-2.152344 4.492187-4.65625 7.1875-7.101563 2.738281-2.484375 5.496093-4.703125 7.855469-6.53125l11.328124 10.003906c2.144532 1.898438 3.386719 4.628907 3.40625 7.496094.015626 2.863282-1.191406 5.609375-3.3125 7.535156zm0 0" fill="#3a312a"/><path d="m99.78125 233.800781c-13.855469-15.277343-39.851562-14.277343-58.058594 2.234375-11.691406 10.605469-17.328125 25.027344-16.195312 38.035156l1.0625 6.089844c1.316406 4.945313 3.71875 9.539063 7.261718 13.441406 13.859376 15.277344 22.65625-4.683593 40.859376-21.195312 18.207031-16.511719 38.929687-23.324219 25.070312-38.605469zm0 0" fill="#87796f"/><path d="m102.007812 231.785156c-14.953124-16.480468-42.894531-15.566406-62.300781 2.03125-12.007812 10.890625-18.425781 26.035156-17.164062 40.515625.007812.085938.015625.167969.035156.253907l1.058594 6.089843c.015625.085938.035156.171875.054687.257813 1.484375 5.570312 4.152344 10.511718 7.9375 14.683594 3.929688 4.332031 7.835938 6.4375 11.941406 6.441406h.007813c7.390625 0 13.457031-6.660156 21.128906-15.085938 3.53125-3.878906 7.53125-8.273437 12.019531-12.34375 4.492188-4.070312 9.253907-7.625 13.457032-10.761718 9.140625-6.824219 16.359375-12.210938 17.070312-19.574219.398438-4.089844-1.320312-8.179688-5.246094-12.507813zm-.726562 11.925782c-.453125 4.722656-7.050781 9.644531-14.6875 15.347656-4.308594 3.214844-9.191406 6.859375-13.894531 11.125s-8.804688 8.773437-12.425781 12.75c-6.414063 7.042968-11.953126 13.128906-16.695313 13.128906h-.003906c-2.320313-.003906-4.773438-1.464844-7.5-4.472656-3.109375-3.425782-5.308594-7.488282-6.550781-12.074219l-1.015626-5.832031c-1.046874-12.582032 4.636719-25.816406 15.230469-35.421875 16.953125-15.375 41.097657-16.472657 53.820313-2.445313 2.730468 3.007813 3.949218 5.589844 3.722656 7.894532zm0 0" fill="#3a312a"/><path d="m419.257812 22.355469c-1.949218 23.128906-26.050781 26.777343-26.050781 26.777343 20.695313.972657 25.847657 28.117188 25.847657 28.117188.445312-19.351562 26.644531-28.402344 26.644531-28.402344-19.625-1.175781-26.441407-26.492187-26.441407-26.492187zm0 0" fill="#d7e057"/><path d="m445.878906 45.851562c-17.207031-1.027343-23.664062-24.046874-23.726562-24.28125-.382813-1.402343-1.695313-2.324218-3.167969-2.203124-1.449219.132812-2.597656 1.285156-2.71875 2.734374-1.71875 20.429688-22.625 23.925782-23.507813 24.0625-1.527343.230469-2.625 1.582032-2.546874 3.121094.082031 1.542969 1.316406 2.769532 2.859374 2.84375 18.054688.851563 22.996094 25.4375 23.042969 25.6875.277344 1.421875 1.519531 2.433594 2.945313 2.433594.085937 0 .167968-.003906.253906-.011719 1.53125-.128906 2.714844-1.386719 2.75-2.917969.386719-17.015624 24.382812-25.554687 24.625-25.636718 1.351562-.472656 2.183594-1.828125 1.988281-3.246094-.203125-1.417969-1.367187-2.5-2.796875-2.585938zm-27.128906 20.691407c-2.714844-6.261719-7.417969-13.816407-15.175781-17.753907 5.863281-2.808593 12.816406-7.828124 16.402343-16.542968 3.105469 6.140625 8.398438 13.757812 16.667969 17.441406-6.015625 3.28125-13.84375 8.8125-17.894531 16.855469zm0 0" fill="#3a312a"/><path d="m375.859375 56.316406c-1.378906 16.355469-18.421875 18.9375-18.421875 18.9375 14.636719.6875 18.28125 19.890625 18.28125 19.890625.3125-13.691406 18.84375-20.089843 18.84375-20.089843-13.882812-.832032-18.703125-18.738282-18.703125-18.738282zm0 0" fill="#d7e057"/><path d="m394.742188 72.058594c-11.53125-.691406-15.945313-16.371094-15.988282-16.527344-.378906-1.40625-1.726562-2.328125-3.160156-2.203125-1.453125.128906-2.601562 1.285156-2.722656 2.734375-1.15625 13.742188-15.292969 16.132812-15.882813 16.226562-1.527343.230469-2.628906 1.578126-2.546875 3.121094.078125 1.539063 1.3125 2.769532 2.855469 2.84375 12.070313.566406 15.449219 17.285156 15.476563 17.449219.273437 1.425781 1.519531 2.441406 2.945312 2.441406.082031 0 .167969-.003906.25-.007812 1.53125-.128907 2.71875-1.390625 2.753906-2.925781.257813-11.417969 16.660156-17.265626 16.824219-17.320313 1.351563-.46875 2.183594-1.828125 1.992187-3.246094-.199218-1.417969-1.367187-2.5-2.796874-2.585937zm-19.167969 13.589844c-1.851563-3.769532-4.683594-7.894532-8.894531-10.558594 3.710937-2.082032 7.394531-5.257813 9.742187-9.832032 2.113281 3.746094 5.304687 7.90625 9.878906 10.445313-3.695312 2.203125-7.976562 5.480469-10.726562 9.945313zm0 0" fill="#3a312a"/><path d="m375.859375 3c-1.378906 16.355469-18.421875 18.941406-18.421875 18.941406 14.636719.6875 18.28125 19.886719 18.28125 19.886719.3125-13.6875 18.84375-20.089844 18.84375-20.089844-13.882812-.832031-18.703125-18.738281-18.703125-18.738281zm0 0" fill="#d7e057"/><path d="m394.742188 18.746094c-11.53125-.691406-15.945313-16.375-15.988282-16.53125-.378906-1.402344-1.726562-2.324219-3.160156-2.2031252-1.453125.1289062-2.601562 1.2851562-2.722656 2.7343752-1.15625 13.742187-15.292969 16.132812-15.882813 16.230468-1.527343.226563-2.628906 1.578126-2.546875 3.121094.078125 1.539063 1.3125 2.765625 2.855469 2.839844 12.070313.570312 15.449219 17.289062 15.476563 17.453125.273437 1.425781 1.519531 2.441406 2.945312 2.441406.082031 0 .167969-.003906.25-.011719 1.53125-.128906 2.71875-1.386718 2.753906-2.921874.257813-11.417969 16.660156-17.269532 16.824219-17.324219 1.351563-.46875 2.183594-1.824219 1.992187-3.242188-.199218-1.417969-1.367187-2.503906-2.796874-2.585937zm-19.167969 13.585937c-1.851563-3.769531-4.683594-7.894531-8.894531-10.558593 3.710937-2.082032 7.394531-5.261719 9.742187-9.832032 2.113281 3.746094 5.304687 7.90625 9.878906 10.445313-3.695312 2.203125-7.976562 5.480469-10.726562 9.945312zm0 0" fill="#3a312a"/><path d="m64.730469 125.511719c-1.242188-12.433594-12.335938-21.507813-24.773438-20.257813-12.4375 1.246094-21.507812 12.335938-20.261719 24.773438 1.246094 12.433594 12.339844 21.507812 24.777344 20.257812 12.4375-1.246094 21.507813-12.335937 20.257813-24.773437zm-23.84375 9.992187c-5.304688.53125-10.035157-3.339844-10.566407-8.644531-.535156-5.300781 3.335938-10.035156 8.640626-10.566406 5.304687-.53125 10.039062 3.335937 10.570312 8.640625.53125 5.304687-3.339844 10.039062-8.644531 10.570312zm0 0" fill="#8ac6dd"/><path d="m38.664062 113.308594c-3.363281.335937-6.394531 1.960937-8.535156 4.578125-2.136718 2.617187-3.128906 5.910156-2.792968 9.273437.652343 6.515625 6.167968 11.390625 12.582031 11.390625.417969 0 .84375-.023437 1.269531-.0625 6.941406-.699219 12.023438-6.914062 11.328125-13.855469-.695313-6.941406-6.890625-12.027343-13.851563-11.324218zm1.925782 19.207031c-1.765625.175781-3.5-.34375-4.875-1.46875s-2.230469-2.71875-2.410156-4.488281c-.175782-1.769532.347656-3.496094 1.472656-4.875 1.125-1.375 2.71875-2.234375 4.484375-2.410156.226562-.019532.449219-.03125.671875-.03125 3.371094 0 6.269531 2.566406 6.613281 5.988281.367187 3.652343-2.304687 6.921875-5.957031 7.285156zm27.125-7.304687c-1.40625-14.058594-14.015625-24.332032-28.054688-22.945313-14.0625 1.410156-24.359375 13.996094-22.949218 28.058594 1.324218 13.195312 12.492187 23.074219 25.484374 23.074219.851563 0 1.710938-.042969 2.574219-.128907 6.8125-.679687 12.953125-3.976562 17.285157-9.277343 4.335937-5.300782 6.347656-11.96875 5.660156-18.78125zm-10.300782 14.984374c-3.320312 4.0625-8.023437 6.582032-13.238281 7.109376-10.769531 1.078124-20.410156-6.804688-21.492187-17.574219-1.078125-10.773438 6.804687-20.414063 17.574218-21.492188.660157-.066406 1.320313-.097656 1.96875-.097656 9.953126 0 18.507813 7.5625 19.523438 17.671875.523438 5.214844-1.019531 10.324219-4.335938 14.382812zm0 0" fill="#3a312a"/><path d="m165.980469 261.648438c-1.242188-12.4375-12.339844-21.507813-24.773438-20.257813-12.4375 1.246094-21.507812 12.335937-20.261719 24.773437 1.246094 12.433594 12.339844 21.503907 24.773438 20.257813 12.441406-1.246094 21.507812-12.335937 20.261719-24.773437zm-23.84375 9.992187c-5.304688.53125-10.035157-3.339844-10.566407-8.644531-.53125-5.304688 3.339844-10.035156 8.644532-10.566406 5.304687-.53125 10.035156 3.335937 10.566406 8.640624.53125 5.304688-3.339844 10.035157-8.644531 10.570313zm0 0" fill="#8ac6dd"/><path d="m168.964844 261.351562c-1.410156-14.066406-13.996094-24.335937-28.054688-22.949218-6.8125.683594-12.953125 3.976562-17.289062 9.277344-4.332032 5.300781-6.34375 11.972656-5.660156 18.78125.683593 6.8125 3.976562 12.953124 9.277343 17.285156 4.625 3.78125 10.289063 5.792968 16.179688 5.792968.863281 0 1.734375-.042968 2.605469-.128906 6.8125-.683594 12.949218-3.980468 17.28125-9.28125 4.335937-5.296875 6.347656-11.96875 5.660156-18.777344zm-23.539063 22.085938c-5.21875.527344-10.324219-1.015625-14.386719-4.335938-4.058593-3.320312-6.582031-8.019531-7.105468-13.238281-.523438-5.214843 1.015625-10.324219 4.335937-14.382812 3.320313-4.058594 8.019531-6.582031 13.238281-7.105469.664063-.066406 1.320313-.101562 1.96875-.101562 9.953126 0 18.503907 7.566406 19.523438 17.675781 1.078125 10.769531-6.804688 20.410156-17.574219 21.488281zm-5.511719-33.996094c-6.945312.699219-12.027343 6.914063-11.328124 13.851563.335937 3.367187 1.960937 6.394531 4.578124 8.535156 2.28125 1.867187 5.078126 2.859375 7.988282 2.859375.425781 0 .855468-.019531 1.285156-.0625 3.363281-.339844 6.394531-1.964844 8.53125-4.582031 2.140625-2.613281 3.132812-5.90625 2.796875-9.269531-.695313-6.945313-6.933594-12.023438-13.851563-11.332032zm6.410157 16.804688c-1.125 1.375-2.71875 2.230468-4.484375 2.40625-1.769532.179687-3.5-.34375-4.878906-1.46875-1.375-1.121094-2.230469-2.714844-2.40625-4.488282-.367188-3.648437 2.304687-6.917968 5.957031-7.28125.226562-.023437.449219-.035156.667969-.035156 3.375 0 6.273437 2.5625 6.617187 5.992188.175781 1.769531-.34375 3.5-1.472656 4.875zm0 0" fill="#3a312a"/><path d="m306.75 292.054688c-1.246094-12.4375-12.339844-21.507813-24.777344-20.261719-12.433594 1.246093-21.507812 12.339843-20.257812 24.777343 1.246094 12.433594 12.339844 21.507813 24.773437 20.257813 12.4375-1.246094 21.507813-12.335937 20.261719-24.773437zm-23.84375 9.988281c-5.304688.535156-10.039062-3.335938-10.570312-8.640625-.53125-5.304688 3.339843-10.039063 8.644531-10.570313 5.304687-.53125 10.035156 3.339844 10.566406 8.644531.53125 5.304688-3.339844 10.035157-8.640625 10.566407zm0 0" fill="#8ac6dd"/><path d="m280.679688 279.847656c-3.363282.335938-6.394532 1.964844-8.535157 4.582032-2.136719 2.613281-3.132812 5.910156-2.792969 9.269531.652344 6.519531 6.167969 11.394531 12.582032 11.394531.421875 0 .84375-.023438 1.269531-.066406 6.941406-.695313 12.023437-6.910156 11.328125-13.851563-.695312-6.941406-6.894531-12.027343-13.851562-11.328125zm1.925781 19.210938c-3.65625.375-6.917969-2.304688-7.285157-5.957032-.179687-1.769531.34375-3.5 1.46875-4.875 1.125-1.378906 2.71875-2.234374 4.488282-2.410156.222656-.023437.445312-.035156.667968-.035156 3.375 0 6.269532 2.566406 6.617188 5.992188.367188 3.652343-2.304688 6.917968-5.957031 7.285156zm27.125-7.304688c-1.40625-14.0625-14.015625-24.34375-28.054688-22.945312-14.0625 1.410156-24.355469 13.996094-22.949219 28.058594.683594 6.8125 3.976563 12.949218 9.28125 17.285156 4.621094 3.777344 10.285157 5.789062 16.175782 5.789062.863281 0 1.734375-.042968 2.605468-.128906 6.8125-.683594 12.953126-3.976562 17.285157-9.277344 4.332031-5.296875 6.34375-11.96875 5.65625-18.78125zm-10.300781 14.984375c-3.320313 4.058594-8.023438 6.585938-13.238282 7.105469-5.214844.53125-10.328125-1.015625-14.386718-4.335938-4.058594-3.320312-6.582032-8.019531-7.105469-13.238281-1.078125-10.769531 6.804687-20.410156 17.574219-21.492187.660156-.066406 1.320312-.097656 1.972656-.097656 9.949218 0 18.503906 7.566406 19.519531 17.671874v.003907c.523437 5.214843-1.019531 10.324219-4.335937 14.382812zm0 0" fill="#3a312a"/><path d="m242.890625 400.605469c-1.246094-12.433594-12.335937-21.507813-24.773437-20.257813-12.433594 1.246094-21.503907 12.335938-20.257813 24.773438s12.335937 21.507812 24.773437 20.257812c12.4375-1.242187 21.503907-12.335937 20.257813-24.773437zm-23.84375 9.992187c-5.304687.53125-10.035156-3.339844-10.570313-8.644531-.53125-5.300781 3.339844-10.035156 8.644532-10.566406 5.304687-.53125 10.039062 3.339843 10.570312 8.640625.53125 5.304687-3.339844 10.039062-8.644531 10.570312zm0 0" fill="#8ac6dd"/><path d="m245.875 400.308594c-1.410156-14.0625-13.980469-24.351563-28.054688-22.945313-6.8125.679688-12.953124 3.976563-17.289062 9.277344-4.332031 5.296875-6.34375 11.96875-5.660156 18.78125s3.976562 12.953125 9.277344 17.285156c4.625 3.78125 10.289062 5.792969 16.179687 5.792969.863281 0 1.730469-.042969 2.601563-.128906 14.0625-1.414063 24.359374-14 22.945312-28.0625zm-23.542969 22.089844c-5.210937.527343-10.324219-1.019532-14.382812-4.335938-4.058594-3.320312-6.582031-8.023438-7.105469-13.242188-.523438-5.214843 1.015625-10.324218 4.335938-14.382812 3.316406-4.058594 8.019531-6.582031 13.238281-7.105469.664062-.066406 1.320312-.097656 1.972656-.097656 9.949219 0 18.5 7.5625 19.519531 17.671875 1.078125 10.769531-6.808594 20.410156-17.578125 21.492188zm3.761719-31.203126c-2.617188-2.136718-5.902344-3.125-9.269531-2.792968-6.945313.695312-12.027344 6.910156-11.328125 13.851562.335937 3.363282 1.960937 6.394532 4.578125 8.53125 2.28125 1.867188 5.078125 2.863282 7.984375 2.863282.429687 0 .859375-.023438 1.289062-.066407 6.941406-.695312 12.023438-6.910156 11.328125-13.851562-.335937-3.363281-1.964843-6.394531-4.582031-8.535157zm-7.34375 16.417969c-1.769531.175781-3.5-.34375-4.878906-1.46875-1.375-1.125-2.230469-2.71875-2.40625-4.488281-.367188-3.648438 2.304687-6.917969 5.957031-7.285156.226563-.023438.453125-.03125.679687-.03125 1.527344 0 2.996094.519531 4.199219 1.503906 1.375 1.125 2.230469 2.71875 2.40625 4.484375.363281 3.652344-2.308593 6.917969-5.957031 7.285156zm0 0" fill="#3a312a"/><path d="m6.5 7.828125v1.617187c224.476562 19.339844 401.4375 207.480469 402.957031 436.542969h35.203125c-1.601562-240.902343-197.261718-436.5625-438.160156-438.160156zm0 0" fill="#decaad"/></svg>