<svg height="451pt" viewBox="-3 0 451 451.99156" width="451pt" xmlns="http://www.w3.org/2000/svg"><path d="m356.117188 187.753906c-1.199219 0-2.378907.023438-3.558594.082032-.480469 9.558593-1.160156 18.960937-2.019532 28.179687 1.839844-.179687 3.699219-.261719 5.578126-.261719 32.519531 0 58.980468 26.460938 58.980468 58.980469s-26.460937 58.980469-58.980468 58.980469c-10.28125 0-19.941407-2.640625-28.359376-7.300782-3.28125 9.160157-6.878906 17.839844-10.839843 25.941407 11.78125 5.980469 25.097656 9.359375 39.199219 9.359375 47.960937 0 86.980468-39.019532 86.980468-86.980469 0-47.957031-39.019531-86.980469-86.980468-86.980469zm0 0" fill="#f16c7a"/><path d="m356.117188 184.753906c-1.253907 0-2.484376.023438-3.714844.085938-1.535156.078125-2.765625 1.308594-2.839844 2.847656-.46875 9.332031-1.148438 18.769531-2.011719 28.046875-.082031.894531.238281 1.773437.871094 2.40625.636719.632813 1.523437.949219 2.40625.859375 1.671875-.164062 3.453125-.246094 5.292969-.246094 30.867187 0 55.976562 25.117188 55.976562 55.980469 0 30.867187-25.113281 55.980469-55.976562 55.980469-9.417969 0-18.722656-2.394532-26.90625-6.925782-.773438-.421874-1.691406-.488281-2.511719-.179687-.824219.308594-1.46875.964844-1.769531 1.792969-3.308594 9.246094-6.914063 17.875-10.710938 25.632812-.71875 1.472656-.125 3.253906 1.339844 3.996094 12.660156 6.425781 26.304688 9.683594 40.558594 9.683594 49.613281 0 89.976562-40.367188 89.976562-89.980469s-40.363281-89.980469-89.980468-89.980469zm0 173.960938c-12.3125 0-24.140626-2.605469-35.203126-7.753906 2.976563-6.304688 5.824219-13.117188 8.496094-20.316407 8.289063 3.980469 17.449219 6.070313 26.710938 6.070313 34.175781 0 61.976562-27.804688 61.976562-61.980469s-27.800781-61.980469-61.976562-61.980469c-.769532 0-1.53125.015625-2.28125.042969.644531-7.3125 1.167968-14.699219 1.570312-22.039063.234375-.003906.46875-.003906.710938-.003906 46.304687 0 83.976562 37.675782 83.976562 83.980469 0 46.308594-37.675781 83.980469-83.980468 83.980469zm0 0" fill="#3a312a"/><path d="m335.9375 151.617188h-235.359375c-9.699219 0-17.539063 7.957031-17.320313 17.636718 2.5 111.222656 26.679688 204.363282 80.179688 240.882813h107.621094c52.417968-36.519531 79.378906-129.640625 82.199218-240.839844.238282-9.703125-7.621093-17.679687-17.320312-17.679687zm0 0" fill="#f16c7a"/><path d="m350.507812 154.757812c-3.867187-3.957031-9.039062-6.140624-14.570312-6.140624h-168.152344c-1.65625 0-3 1.34375-3 3s1.34375 3 3 3h168.152344c3.898438 0 7.546875 1.539062 10.277344 4.332031 2.703125 2.773437 4.136718 6.421875 4.042968 10.269531-2.96875 117.179688-32.167968 203.796875-80.152343 237.917969h-105.734375c-47.679688-33.230469-75.410156-117.664063-78.113282-237.949219-.089843-3.847656 1.347657-7.484375 4.050782-10.25 2.722656-2.785156 6.367187-4.320312 10.265625-4.320312h37.144531c1.65625 0 3-1.34375 3-3s-1.34375-3-3-3h-37.140625c-5.527344 0-10.695313 2.175781-14.558594 6.125-3.839843 3.929687-5.882812 9.105468-5.761719 14.582031 1.601563 71.179687 14.316407 197.4375 81.488282 243.292969.5.339843 1.089844.519531 1.691406.519531h107.621094c.613281 0 1.207031-.1875 1.710937-.539063 50.023438-34.847656 80.453125-123.5 83.488281-243.226562.132813-5.484375-1.910156-10.671875-5.75-14.613282zm0 0" fill="#3a312a"/><path d="m74.027344 22.355469c-1.949219 23.125-26.050782 26.777343-26.050782 26.777343 20.695313.972657 25.851563 28.117188 25.851563 28.117188.441406-19.355469 26.640625-28.40625 26.640625-28.40625-19.625-1.171875-26.441406-26.488281-26.441406-26.488281zm0 0" fill="#d7e057"/><path d="m100.652344 45.851562c-17.210938-1.03125-23.664063-24.046874-23.726563-24.28125-.378906-1.402343-1.695312-2.316406-3.167969-2.203124-1.449218.132812-2.597656 1.28125-2.71875 2.730468-1.71875 20.433594-22.625 23.929688-23.507812 24.066406-1.527344.230469-2.625 1.582032-2.546875 3.121094.078125 1.542969 1.3125 2.769532 2.855469 2.84375 18.054687.847656 22.996094 25.433594 23.042968 25.683594.273438 1.421875 1.519532 2.433594 2.945313 2.433594.082031 0 .167969-.003906.25-.007813 1.527344-.128906 2.714844-1.386719 2.75-2.921875.390625-17.015625 24.382813-25.554687 24.625-25.636718 1.351563-.46875 2.183594-1.828126 1.988281-3.242188-.199218-1.421875-1.363281-2.5-2.789062-2.585938zm-27.136719 20.691407c-2.710937-6.261719-7.414063-13.816407-15.171875-17.753907 5.863281-2.808593 12.816406-7.824218 16.402344-16.546874 3.101562 6.144531 8.402344 13.761718 16.667968 17.449218-6.011718 3.277344-13.84375 8.808594-17.898437 16.851563zm0 0" fill="#3a312a"/><path d="m30.632812 56.3125c-1.378906 16.359375-18.425781 18.941406-18.425781 18.941406 14.636719.691406 18.285157 19.886719 18.285157 19.886719.3125-13.6875 18.84375-20.089844 18.84375-20.089844-13.882813-.828125-18.703126-18.738281-18.703126-18.738281zm0 0" fill="#d7e057"/><path d="m49.511719 72.058594c-11.53125-.691406-15.941407-16.371094-15.984375-16.53125-.378906-1.402344-1.714844-2.320313-3.164063-2.203125-1.453125.128906-2.601562 1.285156-2.722656 2.734375-1.15625 13.742187-15.292969 16.132812-15.882813 16.226562-1.527343.230469-2.625 1.582032-2.546874 3.121094.082031 1.542969 1.3125 2.769531 2.855468 2.84375 12.070313.566406 15.449219 17.289062 15.480469 17.453125.269531 1.425781 1.515625 2.441406 2.945313 2.441406.082031 0 .164062-.003906.25-.011719 1.527343-.125 2.714843-1.386718 2.75-2.921874.261718-11.417969 16.664062-17.265626 16.824218-17.324219 1.351563-.46875 2.1875-1.824219 1.992188-3.242188-.199219-1.417969-1.367188-2.503906-2.796875-2.585937zm-19.167969 13.589844c-1.847656-3.773438-4.679688-7.894532-8.894531-10.5625 3.710937-2.082032 7.394531-5.257813 9.742187-9.832032 2.113282 3.75 5.308594 7.910156 9.882813 10.449219-3.699219 2.199219-7.980469 5.480469-10.730469 9.945313zm0 0" fill="#3a312a"/><path d="m30.632812 2.996094c-1.378906 16.359375-18.425781 18.945312-18.425781 18.945312 14.636719.6875 18.285157 19.886719 18.285157 19.886719.3125-13.691406 18.84375-20.089844 18.84375-20.089844-13.882813-.832031-18.703126-18.742187-18.703126-18.742187zm0 0" fill="#d7e057"/><path d="m49.511719 18.742188c-11.53125-.691407-15.941407-16.371094-15.984375-16.527344-.378906-1.402344-1.714844-2.320313-3.164063-2.2070315-1.453125.1328125-2.601562 1.2890625-2.722656 2.7382815-1.15625 13.738281-15.292969 16.128906-15.882813 16.222656-1.527343.234375-2.625 1.582031-2.546874 3.121094.082031 1.542968 1.3125 2.769531 2.855468 2.839844 12.070313.570312 15.449219 17.292968 15.480469 17.457031.269531 1.425781 1.515625 2.4375 2.945313 2.4375.082031 0 .164062-.003907.25-.007813 1.527343-.125 2.714843-1.386718 2.75-2.921875.261718-11.417969 16.664062-17.265625 16.824218-17.324219 1.351563-.464843 2.1875-1.824218 1.992188-3.242187-.199219-1.417969-1.367188-2.5-2.796875-2.585937zm-19.167969 13.589843c-1.847656-3.769531-4.679688-7.890625-8.894531-10.558593 3.710937-2.082032 7.394531-5.261719 9.742187-9.832032 2.113282 3.75 5.308594 7.90625 9.882813 10.449219-3.699219 2.199219-7.976563 5.480469-10.730469 9.941406zm0 0" fill="#3a312a"/><path d="m43.738281 410.140625c0 21.457031 17.394531 38.851563 38.847657 38.851563h270.921874c21.457032 0 38.851563-17.394532 38.851563-38.851563zm0 0" fill="#87796f"/><g fill="#3a312a"><path d="m392.359375 407.140625h-348.621094c-1.65625 0-3 1.34375-3 3 0 23.078125 18.773438 41.851563 41.851563 41.851563h178.699218c1.65625 0 3-1.34375 3-3s-1.34375-3-3-3h-178.699218c-18.757813 0-34.199219-14.480469-35.726563-32.851563h342.375c-1.527343 18.371094-16.96875 32.851563-35.726562 32.851563h-63.699219c-1.65625 0-3 1.34375-3 3s1.34375 3 3 3h63.699219c23.078125 0 41.855469-18.773438 41.855469-41.851563-.007813-1.65625-1.351563-3-3.007813-3zm0 0"/><path d="m161.125 121.625c-4.730469-4.730469-7.320312-11.019531-7.296875-17.710938.027344-6.6875 2.664063-12.957031 7.425781-17.648437 12.140625-11.964844 12.289063-31.574219.320313-43.71875l-.867188-.878906c-9.570312-9.710938-9.515625-25.457031.140625-35.113281l.140625-.140626c1.164063-1.179687 1.152344-3.082031-.027343-4.246093-1.1875-1.160157-3.082032-1.144531-4.246094.03125l-.125.128906c-11.960938 11.960937-12.035156 31.5-.15625 43.554687l.871094.875c9.636718 9.789063 9.523437 25.589844-.261719 35.230469-5.910157 5.824219-9.183594 13.601563-9.214844 21.902344-.027344 8.296875 3.183594 16.101563 9.058594 21.976563l.492187.488281c.585938.585937 1.351563.875 2.117188.875.769531 0 1.539062-.292969 2.125-.882813 1.167968-1.171875 1.164062-3.070312-.011719-4.238281zm0 0"/><path d="m201.378906 121.625c-4.726562-4.730469-7.320312-11.019531-7.292968-17.707031.023437-6.691407 2.660156-12.957031 7.425781-17.652344 12.140625-11.964844 12.285156-31.574219.316406-43.71875l-.867187-.878906c-9.570313-9.710938-9.511719-25.457031.144531-35.113281l.140625-.140626c1.160156-1.179687 1.148437-3.082031-.03125-4.246093-1.183594-1.160157-3.078125-1.144531-4.242188.03125l-.125.128906c-11.964844 11.960937-12.035156 31.5-.15625 43.554687l.867188.875c4.671875 4.742188 7.214844 11.019532 7.167968 17.667969-.050781 6.65625-2.6875 12.890625-7.425781 17.5625-5.914062 5.824219-9.1875 13.605469-9.214843 21.902344-.03125 8.300781 3.183593 16.101563 9.054687 21.976563l.492187.488281c.585938.585937 1.351563.875 2.117188.875.769531 0 1.542969-.292969 2.125-.882813 1.171875-1.171875 1.167969-3.070312-.007812-4.238281zm0 0"/><path d="m238.957031 121.625c-4.726562-4.730469-7.320312-11.019531-7.292969-17.707031.023438-6.691407 2.660157-12.957031 7.425782-17.652344 12.140625-11.960937 12.285156-31.574219.316406-43.714844l-.867188-.878906c-9.570312-9.710937-9.511718-25.457031.125-35.101563l.144532-.140624c1.171875-1.171876 1.171875-3.070313 0-4.242188s-3.070313-1.171875-4.242188 0l-.144531.140625c-11.960937 11.964844-12.03125 31.503906-.15625 43.554687l.871094.878907c4.667969 4.738281 7.214843 11.015625 7.167969 17.667969-.050782 6.652343-2.6875 12.890624-7.425782 17.5625-5.914062 5.824218-9.1875 13.601562-9.214844 21.902343-.03125 8.296875 3.183594 16.101563 9.050782 21.96875l.492187.492188c.585938.585937 1.351563.875 2.117188.875.769531 0 1.535156-.289063 2.125-.875 1.171875-1.175781 1.171875-3.070313 0-4.242188zm0 0"/><path d="m279.214844 121.625c-4.730469-4.730469-7.320313-11.019531-7.296875-17.707031.023437-6.691407 2.664062-12.957031 7.425781-17.652344 12.140625-11.960937 12.289062-31.574219.320312-43.714844l-.867187-.878906c-9.570313-9.710937-9.511719-25.457031.125-35.101563l.144531-.140624c1.171875-1.171876 1.171875-3.070313 0-4.242188s-3.070312-1.171875-4.242187 0l-.144531.140625c-11.960938 11.964844-12.03125 31.503906-.15625 43.554687l.871093.878907c4.667969 4.738281 7.214844 11.015625 7.167969 17.667969-.050781 6.652343-2.6875 12.890624-7.425781 17.5625-5.914063 5.824218-9.1875 13.601562-9.214844 21.902343-.03125 8.296875 3.183594 16.101563 9.050781 21.96875l.492188.492188c.585937.585937 1.351562.875 2.121094.875.765624 0 1.535156-.289063 2.121093-.875 1.171875-1.175781 1.171875-3.070313 0-4.242188zm0 0"/></g><path d="m346.21875 158.957031c-2.722656-2.800781-6.382812-4.339843-10.28125-4.339843h-22c3.898438 0 7.558594 1.539062 10.28125 4.339843 2.699219 2.757813 4.136719 6.417969 4.039062 10.257813-1.878906 74-14.261718 136.742187-35.820312 181.421875-12.300781 25.457031-27.058594 44.320312-44.160156 56.5h22c17.101562-12.179688 31.859375-31.042969 44.160156-56.5 21.558594-44.679688 33.941406-107.421875 35.820312-181.421875.097657-3.839844-1.339843-7.5-4.039062-10.257813zm0 0" fill="#d34e5c"/><path d="m357.835938 413.136719v.003906c-1.519532 18.359375-16.925782 32.820313-35.65625 32.851563-.019532 0-.039063.003906-.058594.003906h31.398437c18.761719 0 34.199219-14.480469 35.71875-32.859375zm0 0" fill="#695b51"/><path d="m105.886719 309.664062c-33.535157-10.289062-99.109375 11.496094-102.246094 21.71875-3.136719 10.21875 38.925781 65.042969 72.457031 75.335938 33.53125 10.289062 62.402344-4.621094 70.628906-31.421875 8.226563-26.800781-7.308593-55.339844-40.839843-65.632813zm0 0" fill="#d7e057"/><path d="m144.539062 334.75c-7.738281-12.925781-21.152343-22.855469-37.773437-27.953125-33.28125-10.214844-101.859375 10.214844-105.996094 23.703125-2.558593 8.34375 13.3125 29.386719 23.097657 40.503906 8.269531 9.398438 29.828124 31.976563 51.351562 38.582032 7.355469 2.257812 14.714844 3.378906 21.824219 3.378906 8.957031 0 17.511719-1.785156 25.125-5.328125 13.371093-6.226563 23.113281-17.398438 27.425781-31.460938 4.316406-14.058593 2.523438-28.773437-5.054688-41.425781zm-.679687 39.667969c-3.808594 12.414062-12.414063 22.28125-24.222656 27.78125-12.308594 5.738281-27.457031 6.316406-42.65625 1.65625-14.125-4.339844-31.84375-17.753907-48.609375-36.8125-16.0625-18.253907-22.675782-32.136719-21.867188-34.78125 1.710938-5.558594 44.074219-22.386719 78.074219-22.386719 7.367187 0 14.34375.792969 20.425781 2.65625 15.203125 4.667969 27.414063 13.648438 34.386719 25.300781 6.691406 11.175781 8.277344 24.171875 4.46875 36.585938zm0 0" fill="#3a312a"/><path d="m191.128906 342.421875c-6.507812-34.464844-56.328125-82.351563-66.835937-80.367187-10.503907 1.984374-39.4375 64.738281-32.925781 99.203124 6.507812 34.46875 33.148437 53.074219 60.695312 47.875 27.546875-5.203124 45.574219-32.242187 39.066406-66.710937zm0 0" fill="#d7e057"/><path d="m194.074219 341.867188c-4.175781-22.125-24.21875-46.050782-32.644531-55.3125-9.964844-10.957032-29.082032-29.078126-37.691407-27.445313-8.578125 1.617187-19.808593 25.464844-25.089843 39.296875-4.46875 11.695312-14.40625 41.289062-10.230469 63.410156 5.867187 31.054688 27.882812 51.210938 54.226562 51.210938 3.265625 0 6.601563-.308594 9.976563-.949219 14.453125-2.730469 26.636718-11.171875 34.304687-23.769531 7.835938-12.859375 10.375-29.355469 7.148438-46.441406zm-12.269531 43.328124c-6.777344 11.125-17.535157 18.582032-30.296876 20.992188-27.199218 5.140625-51.25-13.996094-57.195312-45.480469-2.742188-14.519531.878906-36.449219 9.9375-60.160156 8.675781-22.714844 17.882812-35.03125 20.597656-35.542969.082032-.011718.171875-.019531.273438-.019531 3.222656 0 15.996094 8.152344 31.871094 25.605469 17.078124 18.78125 28.445312 37.875 31.1875 52.390625 2.949218 15.625.6875 30.613281-6.375 42.214843zm0 0" fill="#3a312a"/></svg>