<svg height="452pt" viewBox="0 0 452.955 452" width="452pt" xmlns="http://www.w3.org/2000/svg"><path d="m74.019531 183.007812c-4.019531.699219-8.199219 1-12.480469 1-4.277343 0-8.460937-.300781-12.480468-1-.519532-.082031-1.019532-.179687-1.519532-.28125v253.246094c0 7.742188 6.261719 14 14 14 3.882813 0 7.359376-1.558594 9.902344-4.097656 2.539063-2.539062 4.097656-6.019531 4.097656-9.902344v-253.246094c-.5.101563-1 .199219-1.519531.28125zm0 0" fill="#d7e057"/><path d="m75.539062 226.285156c1.660157 0 3-1.339844 3-3v-40.558594c0-.898437-.402343-1.75-1.097656-2.320312-.699218-.570312-1.613281-.796875-2.492187-.621094-.457031.089844-.914063.183594-1.445313.265625-3.640625.632813-7.664062.957031-11.964844.957031-4.296874 0-8.324218-.324218-12.023437-.964843-.472656-.074219-.925781-.167969-1.382813-.257813-.878906-.175781-1.796874.050782-2.492187.621094-.695313.566406-1.101563 1.421875-1.101563 2.320312v253.246094c0 9.375 7.625 17 17 17 4.539063 0 8.808594-1.765625 12.023438-4.976562 3.210938-3.210938 4.976562-7.480469 4.976562-12.023438v-181.925781c0-1.65625-1.339843-3-3-3-1.65625 0-3 1.34375-3 3v181.925781c0 2.941406-1.144531 5.703125-3.21875 7.78125-2.078124 2.078125-4.84375 3.21875-7.78125 3.21875-6.066406 0-11-4.933594-11-11v-249.695312c3.429688.484375 7.121094.730468 11 .730468 3.894532 0 7.59375-.25 11-.730468v37.007812c0 1.65625 1.34375 3 3 3zm0 0" fill="#3a312a"/><path d="m61.539062 3.488281c-5.21875 0-18.738281 10.636719-31.5 28 7.859376 4.21875 20.582032 16.296875 31.621094 33.476563 11.140625-17.21875 23.898438-29.296875 31.601563-33.519532-12.660157-17.359374-26.203125-27.957031-31.722657-27.957031zm0 0" fill="#d7e057"/><path d="m95.683594 29.679688c-12.332032-16.914063-26.695313-29.191407-34.144532-29.191407-7.089843 0-21.671874 12.5625-33.914062 29.222657-.515625.703124-.703125 1.589843-.511719 2.441406.191407.847656.742188 1.570312 1.507813 1.980468 7.339844 3.941407 19.621094 15.503907 30.515625 32.457032.550781.859375 1.5 1.375 2.519531 1.378906h.003906c1.019532 0 1.96875-.515625 2.519532-1.371094 10.933593-16.898437 23.207031-28.507812 30.523437-32.515625.753906-.417969 1.296875-1.136719 1.484375-1.980469s.003906-1.726562-.503906-2.421874zm-34.015625 29.875c-9.5-13.847657-19.824219-23.933594-27.242188-28.910157 12.378907-16.085937 23.910157-24.15625 27.113281-24.15625 3.15625 0 14.53125 7.316407 27.359376 24.128907-7.382813 5.011718-17.703126 15.121093-27.230469 28.9375zm0 0" fill="#3a312a"/><path d="m30.039062 31.488281c-14 19.097657-27.039062 46.359375-27.039062 76.597657v.5c11.839844-15.039063 23.71875-24.097657 28.539062-24.097657 3.140626 0 8.820313 3.398438 15.480469 9.519531 3.921875-10.703124 9.082031-20.5 14.640625-29.042968-11.039062-17.179688-23.761718-29.257813-31.621094-33.476563zm0 0" fill="#d7e057"/><path d="m64.183594 63.34375c-11.472656-17.855469-24.703125-30.191406-32.722656-34.5-1.320313-.707031-2.953126-.335938-3.839844.871094-10.316406 14.070312-27.621094 42.96875-27.621094 78.375v.5c0 1.277344.808594 2.414062 2.019531 2.835937.320313.109375.652344.164063.976563.164063.902344 0 1.78125-.410156 2.359375-1.144532 12.613281-16.023437 23.441406-22.957031 26.183593-22.957031 1.46875 0 5.949219 1.839844 13.449219 8.726563.738281.679687 1.765625.945312 2.738281.707031.972657-.234375 1.761719-.941406 2.109376-1.882813 3.566406-9.734374 8.390624-19.300781 14.335937-28.433593.644531-.992188.648437-2.265625.011719-3.261719zm-18.421875 25.582031c-4.292969-3.542969-9.972657-7.4375-14.21875-7.4375-5.449219 0-15.28125 7.316407-25.222657 18.464844 2.214844-28.289063 15.441407-51.539063 24.550782-64.476563 7.175781 4.695313 17.648437 15.023438 27.21875 29.5-4.902344 7.742188-9.039063 15.773438-12.328125 23.949219zm0 0" fill="#3a312a"/><path d="m93.261719 31.445312c-7.703125 4.222657-20.460938 16.300782-31.601563 33.519532-5.558594 8.542968-10.71875 18.339844-14.640625 29.042968 4.601563 4.21875 9.660157 9.738282 14.660157 16.320313 12.261718-16.082031 24.859374-25.839844 29.859374-25.839844 5.0625 0 16.859376 8.917969 28.539063 23.777344v-.179687c0-30.257813-12.878906-57.539063-26.816406-76.640626zm0 0" fill="#d7e057"/><path d="m95.683594 29.679688c-.886719-1.21875-2.542969-1.589844-3.863282-.863282-7.976562 4.371094-21.175781 16.742188-32.675781 34.515625-6.191406 9.507813-11.21875 19.484375-14.941406 29.640625-.417969 1.140625-.109375 2.421875.789063 3.246094 4.746093 4.355469 9.695312 9.863281 14.300781 15.921875.566406.746094 1.449219 1.1875 2.386719 1.1875s1.816406-.4375 2.386718-1.183594c13.125-17.210937 24.542969-24.65625 27.472656-24.65625 2.925782 0 13.609376 6.636719 26.183594 22.628907.789063 1.007812 2.128906 1.402343 3.339844.984374 1.207031-.417968 2.019531-1.558593 2.019531-2.835937v-.179687c-.003906-35.5625-17.167969-64.390626-27.398437-78.40625zm-4.144532 51.808593c-6.300781 0-18.542968 9.90625-29.855468 23.96875-3.636719-4.535156-7.429688-8.710937-11.152344-12.269531 3.488281-9.097656 8.074219-18.03125 13.648438-26.589844 9.871093-15.261718 20.839843-26.210937 28.257812-31.140625 9.003906 12.851563 22.042969 35.921875 24.300781 64.160157-9.8125-10.949219-19.625-18.128907-25.199219-18.128907zm0 0" fill="#3a312a"/><path d="m91.539062 84.488281c-5 0-17.597656 9.757813-29.859374 25.839844 12.800781 16.878906 25.082031 40.757813 27.820312 67.679687 18.179688-9.261718 30.539062-30.179687 30.578125-69.742187-11.679687-14.859375-23.476563-23.777344-28.539063-23.777344zm0 0" fill="#d7e057"/><path d="m122.4375 106.414062c-11.535156-14.675781-24.242188-24.925781-30.898438-24.925781-6.746093 0-20.308593 11.363281-32.246093 27.019531-.816407 1.070313-.820313 2.554688-.003907 3.628907 8.839844 11.65625 24.128907 35.753906 27.226563 66.171875.101563.984375.679687 1.855468 1.546875 2.328125.449219.246093.941406.367187 1.4375.367187.464844 0 .933594-.109375 1.363281-.328125 21.339844-10.867187 32.179688-35.226562 32.214844-72.40625.003906-.671875-.222656-1.328125-.640625-1.855469zm-30.503906 66.742188c-3.996094-28.214844-17.609375-50.6875-26.484375-62.792969 12.535156-15.945312 23.265625-22.875 26.09375-22.875 2.875 0 13.242187 6.414063 25.535156 21.816407-.214844 31.800781-8.664063 53.242187-25.144531 63.851562zm0 0" fill="#3a312a"/><path d="m61.679688 110.316406c-12.199219-16.078125-24.839844-25.820312-30.140626-25.820312-4.820312 0-16.699218 9.039062-28.539062 24.101562.101562 39.339844 12.441406 60.179688 30.578125 69.417969 8.300781 4.222656 17.84375 6 27.960937 6 10.121094 0 19.660157-1.777344 27.960938-6.019531-2.738281-26.917969-15.019531-50.800782-27.820312-67.679688zm0 0" fill="#d7e057"/><path d="m64.070312 108.503906c-12.0625-15.902344-25.441406-27.003906-32.53125-27.003906-6.503906 0-19.210937 10.378906-30.898437 25.246094-.414063.53125-.64453125 1.183594-.640625 1.859375.09375 36.992187 10.933594 61.246093 32.21875 72.085937 8.253906 4.199219 18.121094 6.328125 29.320312 6.328125 11.214844 0 21.082032-2.136719 29.328126-6.347656 1.101562-.566406 1.746093-1.746094 1.617187-2.976563-3.246094-31.878906-19.195313-57.035156-28.414063-69.191406zm-2.53125 72.511719c-10.246093 0-19.195312-1.910156-26.597656-5.671875-18.921875-9.640625-28.65625-31.746094-28.933594-65.710938 12.316407-15.441406 22.832032-22.132812 25.53125-22.132812 3.160157 0 14.542969 7.222656 27.75 24.628906 8.636719 11.390625 23.433594 34.65625 26.996094 64.089844-7.019531 3.183594-15.332031 4.796875-24.746094 4.796875zm0 0" fill="#3a312a"/><path d="m61.539062 6.507812c-1.417968 0-4.460937 1.578126-8.480468 4.738282 5.582031 4.800781 12 11.699218 18.203125 20.199218 2.078125 2.839844 4.117187 5.859376 6.097656 9.0625 4.21875-4.261718 8.199219-7.601562 11.539063-9.882812-12.839844-16.796875-24.199219-24.117188-27.359376-24.117188zm0 0" fill="#b9c239"/><path d="m92.441406 35.464844c-3.320312 2.222656-7.460937 5.742187-11.902344 10.363281 6.101563 10.71875 11.359376 23.039063 14.460938 36.378906 5.699219 2.058594 13.699219 8.460938 21.699219 17.398438-2.257813-28.21875-15.257813-51.300781-24.257813-64.140625zm0 0" fill="#b9c239"/><path d="m96.5 89.625c1.019531 6 1.578125 12.160156 1.578125 18.460938v.179687c-.019531 21.160156-3.558594 37-9.65625 48.5625 1.476563 5.179687 2.679687 10.636719 3.476563 16.316406 16.5-10.578125 24.960937-32.019531 25.179687-63.839843-8.316406-10.417969-15.757813-16.71875-20.578125-19.679688zm0 0" fill="#b9c239"/><path d="m84.078125 163.828125c-4.636719 6.316406-10.257813 10.957031-16.578125 14.179687-2.320312 1.179688-4.738281 2.179688-7.261719 2.980469.421875.019531.863281.019531 1.300781.019531 9.421876 0 17.722657-1.601562 24.742188-4.78125-.519531-4.28125-1.28125-8.421874-2.203125-12.398437zm0 0" fill="#b9c239"/><path d="m358.769531 21.304688c-7.160156-4.40625-29.402343 18.714843-49.679687 51.648437s-30.914063 63.207031-23.753906 67.613281c7.160156 4.410156 29.402343-18.714844 49.679687-51.648437 20.277344-32.933594 30.914063-63.203125 23.753906-67.613281zm0 0" fill="#d7e057"/><path d="m360.359375 18.753906c-4.996094-3.074218-12.734375.941406-23.65625 12.296875-9.527344 9.902344-20.234375 24.226563-30.152344 40.332031-13.246093 21.507813-35.050781 64.179688-22.777343 71.742188 1.066406.65625 2.253906.964844 3.542968.964844 13.539063 0 38.175782-33.957032 50.269532-53.59375 9.917968-16.109375 17.886718-32.117188 22.445312-45.082032 5.21875-14.863281 5.328125-23.582031.328125-26.660156zm-5.992187 24.671875c-4.417969 12.574219-12.191407 28.171875-21.890626 43.921875-22.746093 36.9375-42.042968 52.847656-45.554687 50.667969-3.535156-2.175781 1.996094-26.558594 24.738281-63.488281 9.699219-15.75 20.128906-29.714844 29.367188-39.320313 9.140625-9.5 13.976562-11.457031 15.644531-11.457031.25 0 .429687.042969.539063.113281.863281.527344 2.183593 5.257813-2.84375 19.5625zm0 0" fill="#3a312a"/><path d="m310.097656 3.648438c-8.011718-2.546876-24.007812 25.269531-35.726562 62.125-11.71875 36.859374-14.722656 68.804687-6.710938 71.351562 8.015625 2.550781 24.007813-25.265625 35.726563-62.125 11.722656-36.859375 14.726562-68.804688 6.710937-71.351562zm0 0" fill="#d7e057"/><path d="m311 .789062c-5.585938-1.773437-12.128906 3.996094-19.980469 17.652344-6.855469 11.914063-13.78125 28.402344-19.511719 46.425782-5.730468 18.023437-9.597656 35.488281-10.878906 49.167968-1.476562 15.683594.527344 24.171875 6.121094 25.953125.632812.199219 1.28125.296875 1.933594.296875 13.453125 0 30.261718-41.417968 37.558594-64.375 5.730468-18.023437 9.597656-35.488281 10.878906-49.167968 1.476562-15.6875-.523438-24.171876-6.121094-25.953126zm.148438 25.386719c-1.246094 13.269531-5.019532 30.285157-10.625 47.914063-13.140626 41.332031-27.972657 61.417968-31.957032 60.175781-.960937-.304687-3.386718-4.574219-1.964844-19.667969 1.246094-13.269531 5.019532-30.289062 10.625-47.914062 5.605469-17.628906 12.347657-33.699219 18.992188-45.253906 7.121094-12.378907 11.480469-14.945313 12.761719-14.945313.082031 0 .148437.007813.207031.027344.957031.300781 3.382812 4.570312 1.960938 19.664062zm0 0" fill="#3a312a"/><path d="m396.386719 56.789062c-5.882813-6.007812-33.054688 11.054688-60.695313 38.105469-27.636718 27.054688-45.277344 53.859375-39.394531 59.867188 5.882813 6.007812 33.054687-11.054688 60.695313-38.105469 27.636718-27.058594 45.277343-53.859375 39.394531-59.867188zm0 0" fill="#d7e057"/><path d="m398.53125 54.6875c-4.105469-4.191406-12.589844-2.160156-25.929688 6.214844-11.636718 7.304687-25.492187 18.617187-39.007812 31.847656-18.050781 17.667969-49.523438 53.804688-39.441406 64.109375 1.378906 1.40625 3.25 2.113281 5.632812 2.113281 4.714844 0 11.433594-2.765625 20.292969-8.328125 11.636719-7.308593 25.492187-18.621093 39.007813-31.851562 18.054687-17.664063 49.527343-53.800781 39.445312-64.105469zm-43.636719 59.824219c-13.21875 12.9375-26.714843 23.964843-38.003906 31.054687-12.839844 8.058594-17.746094 7.820313-18.449219 7.097656-2.902344-2.964843 8.355469-25.285156 39.347656-55.625 13.21875-12.9375 26.71875-23.964843 38.003907-31.054687 9.648437-6.058594 14.816406-7.425781 17.085937-7.425781.753906 0 1.1875.148437 1.363282.328125 2.902343 2.964843-8.355469 25.285156-39.347657 55.625zm0 0" fill="#3a312a"/><path d="m326.042969 146.519531-57.734375-35.550781c-17.828125-10.976562-41.238282-4.003906-50.152344 14.945312l-23.386719 49.714844-13.257812 28.1875-92.203125 195.992188c-7.601563 16.160156-1.851563 35.457031 13.355468 44.820312 15.207032 9.363282 35.023438 5.8125 46.03125-8.25l186.585938-238.347656c12.898438-16.488281 8.589844-40.53125-9.238281-51.511719zm0 0" fill="#f16c7a"/><g fill="#3a312a"><path d="m345.136719 169.683594c-1.910157-10.664063-8.296875-20.039063-17.523438-25.71875l-57.730469-35.550782c-9.226562-5.679687-20.464843-7.167968-30.851562-4.070312-10.378906 3.089844-18.980469 10.488281-23.589844 20.289062l-23.386718 49.714844c-.707032 1.5-.0625 3.289063 1.4375 3.992188 1.5.707031 3.285156.0625 3.992187-1.4375l23.386719-49.714844c3.886718-8.257812 11.128906-14.488281 19.875-17.09375s18.21875-1.355469 25.992187 3.425781l57.730469 35.554688c7.773438 4.785156 13.152344 12.679687 14.761719 21.664062 1.613281 8.980469-.691407 18.253907-6.316407 25.441407l-186.585937 238.347656c-10.078125 12.875-28.175781 16.117187-42.09375 7.546875-13.921875-8.574219-19.171875-26.195313-12.210937-40.988281l92.199218-195.992188c.707032-1.5.0625-3.289062-1.4375-3.992188-1.5-.707031-3.289062-.0625-3.992187 1.4375l-92.199219 195.992188c-8.257812 17.5625-2.03125 38.476562 14.496094 48.652344 6.210937 3.824218 13.117187 5.667968 19.960937 5.664062 11.363281 0 22.539063-5.082031 30.003907-14.621094l186.582031-238.347656c6.675781-8.527344 9.410156-19.535156 7.5-30.195312zm0 0"/><path d="m232.550781 168.738281-26.496093-16.316406c-1.410157-.871094-3.257813-.429687-4.125.980469-.871094 1.410156-.433594 3.257812.980468 4.128906l26.496094 16.316406c.488281.300782 1.035156.445313 1.570312.445313 1.003907 0 1.988282-.507813 2.554688-1.425781.871094-1.414063.429688-3.261719-.980469-4.128907zm0 0"/><path d="m197.902344 232.96875-23.058594-14.199219c-1.40625-.867187-3.253906-.425781-4.128906.984375-.867188 1.410156-.425782 3.257813.984375 4.125l23.058593 14.203125c.488282.300781 1.035157.445313 1.570313.445313 1.007813 0 1.988281-.507813 2.558594-1.425782.867187-1.414062.425781-3.261718-.984375-4.132812zm0 0"/><path d="m161.808594 306.519531-21.789063-13.414062c-1.410156-.867188-3.257812-.429688-4.128906.980469-.867187 1.414062-.425781 3.257812.984375 4.128906l21.785156 13.414062c.492188.304688 1.035156.449219 1.570313.449219 1.007812 0 1.992187-.507813 2.558593-1.425781.867188-1.414063.429688-3.261719-.980468-4.132813zm0 0"/><path d="m122.921875 385.765625-20.800781-12.808594c-1.40625-.867187-3.257813-.425781-4.128906.984375-.867188 1.410156-.425782 3.257813.984374 4.128906l20.800782 12.804688c.488281.304688 1.03125.449219 1.570312.449219 1.007813 0 1.992188-.507813 2.554688-1.429688.867187-1.410156.429687-3.261719-.980469-4.128906zm0 0"/><path d="m303.511719 238.0625-29.566407-18.207031c-1.40625-.863281-3.257812-.429688-4.125.984375-.871093 1.410156-.429687 3.257812.980469 4.125l29.566407 18.207031c.488281.300781 1.03125.445313 1.570312.445313 1.003906 0 1.988281-.507813 2.554688-1.425782.867187-1.414062.429687-3.257812-.980469-4.128906zm0 0"/><path d="m246.070312 311.582031-25.578124-15.75c-1.410157-.871093-3.257813-.429687-4.128907.980469-.867187 1.410156-.425781 3.257812.984375 4.128906l25.582032 15.75c.488281.304688 1.03125.445313 1.566406.445313 1.007812 0 1.992187-.503907 2.558594-1.425781.871093-1.414063.429687-3.261719-.984376-4.128907zm0 0"/><path d="m194.371094 377.484375-23.746094-14.625c-1.410156-.867187-3.253906-.425781-4.128906.984375-.867188 1.410156-.425782 3.257812.984375 4.125l23.742187 14.625c.492188.300781 1.035156.445312 1.570313.445312 1.007812 0 1.992187-.507812 2.558593-1.425781.867188-1.414062.429688-3.261719-.980468-4.128906zm0 0"/></g><path d="m203.566406 24.222656c-1.945312 23.128906-26.046875 26.78125-26.046875 26.78125 20.695313.972656 25.851563 28.117188 25.851563 28.117188.441406-19.351563 26.640625-28.402344 26.640625-28.402344-19.628907-1.175781-26.445313-26.496094-26.445313-26.496094zm0 0" fill="#d7e057"/><path d="m230.191406 47.71875c-17.210937-1.027344-23.664062-24.046875-23.730468-24.277344-.382813-1.40625-1.722657-2.335937-3.167969-2.203125-1.449219.128907-2.59375 1.28125-2.71875 2.730469-1.71875 20.433594-22.625 23.929688-23.507813 24.066406-1.523437.230469-2.625 1.582032-2.542968 3.125.078124 1.539063 1.3125 2.765625 2.855468 2.839844 18.054688.851562 22.996094 25.4375 23.042969 25.683594.273437 1.421875 1.519531 2.433594 2.945313 2.433594.082031 0 .167968 0 .253906-.007813 1.527344-.128906 2.714844-1.386719 2.746094-2.917969.390624-17.019531 24.386718-25.554687 24.625-25.640625 1.355468-.46875 2.1875-1.828125 1.988281-3.246093-.195313-1.417969-1.363281-2.5-2.789063-2.585938zm-27.132812 20.695312c-2.710938-6.261718-7.417969-13.816406-15.175782-17.753906 5.863282-2.808594 12.820313-7.824218 16.40625-16.546875 3.101563 6.144531 8.398438 13.761719 16.667969 17.445313-6.015625 3.28125-13.847656 8.8125-17.898437 16.855468zm0 0" fill="#3a312a"/><path d="m160.171875 58.183594c-1.378906 16.359375-18.425781 18.941406-18.425781 18.941406 14.636718.6875 18.285156 19.886719 18.285156 19.886719.3125-13.6875 18.84375-20.089844 18.84375-20.089844-13.882812-.828125-18.703125-18.738281-18.703125-18.738281zm0 0" fill="#d7e057"/><path d="m179.054688 73.929688c-11.53125-.691407-15.945313-16.371094-15.988282-16.53125-.378906-1.402344-1.703125-2.335938-3.164062-2.203126-1.453125.128907-2.597656 1.28125-2.71875 2.734376-1.160156 13.742187-15.296875 16.132812-15.886719 16.226562-1.527344.230469-2.625 1.582031-2.546875 3.121094.078125 1.539062 1.3125 2.765625 2.855469 2.839844 12.070312.570312 15.445312 17.289062 15.476562 17.453124.269531 1.425782 1.519531 2.441407 2.945313 2.441407.082031 0 .164062-.003907.25-.011719 1.527344-.128906 2.714844-1.386719 2.75-2.921875.261718-11.417969 16.664062-17.265625 16.828125-17.320313 1.351562-.46875 2.1875-1.828124 1.992187-3.246093-.199218-1.414063-1.367187-2.496094-2.792968-2.582031zm-19.171876 13.589843c-1.847656-3.773437-4.679687-7.894531-8.894531-10.5625 3.710938-2.082031 7.394531-5.257812 9.742188-9.832031 2.117187 3.746094 5.308593 7.910156 9.882812 10.449219-3.699219 2.199219-7.976562 5.480469-10.730469 9.945312zm0 0" fill="#3a312a"/><path d="m160.171875 4.871094c-1.378906 16.355468-18.425781 18.941406-18.425781 18.941406 14.636718.6875 18.285156 19.886719 18.285156 19.886719.3125-13.6875 18.84375-20.089844 18.84375-20.089844-13.882812-.832031-18.703125-18.738281-18.703125-18.738281zm0 0" fill="#d7e057"/><path d="m179.054688 20.613281c-11.480469-.6875-15.90625-16.226562-15.988282-16.527343-.375-1.402344-1.703125-2.328126-3.164062-2.207032-1.449219.132813-2.597656 1.285156-2.71875 2.738282-1.15625 13.742187-15.292969 16.132812-15.886719 16.226562-1.523437.230469-2.625 1.578125-2.542969 3.121094.078125 1.539062 1.3125 2.769531 2.855469 2.839844 12.070313.570312 15.445313 17.289062 15.476563 17.453124.269531 1.425782 1.519531 2.441407 2.945312 2.441407.082031 0 .164062-.003907.25-.011719 1.527344-.125 2.714844-1.386719 2.75-2.921875.261719-11.417969 16.664062-17.265625 16.828125-17.324219 1.351563-.46875 2.1875-1.824218 1.992187-3.242187-.203124-1.417969-1.371093-2.5-2.796874-2.585938zm-19.171876 13.589844c-1.847656-3.769531-4.679687-7.894531-8.894531-10.558594 3.710938-2.085937 7.394531-5.261719 9.742188-9.835937 2.117187 3.75 5.308593 7.910156 9.882812 10.449218-3.699219 2.203126-7.976562 5.480469-10.730469 9.945313zm0 0" fill="#3a312a"/><path d="m313.753906 354.207031c-12.597656-2.753906-24.941406-4.59375-36.640625-6.101562-.519531 1.113281-.976562 2.277343-1.390625 3.472656l-4.933594 14.285156-5.707031 16.511719-4.828125 13.96875c-7.460937 21.59375 5.597656 44.855469 27.910156 49.734375l10.519532 2.296875c22.210937 4.855469 43.710937-10.671875 46.09375-33.28125l4.941406-47.078125c.136719-1.328125.210938-2.648437.199219-3.960937-11.347657-3.550782-23.445313-7.0625-36.164063-9.847657zm0 0" fill="#fce8cb"/><path d="m350.816406 361.191406c-9.628906-3.011718-22.472656-6.863281-36.421875-9.914062-13.738281-3.003906-26.933593-4.863282-36.898437-6.152344-1.304688-.164062-2.550782.527344-3.105469 1.714844-.53125 1.140625-1.023437 2.367187-1.503906 3.753906l-15.464844 44.765625c-3.835937 11.101563-2.738281 23.34375 3.007813 33.585937 5.75 10.238282 15.625 17.550782 27.097656 20.058594l10.515625 2.296875c2.90625.632813 5.847656.949219 8.773437.949219 8.578125 0 17.039063-2.683594 24.105469-7.785156 9.476563-6.84375 15.617187-17.4375 16.84375-29.0625l4.941406-47.082032c.15625-1.507812.226563-2.910156.214844-4.292968-.011719-1.292969-.863281-2.445313-2.105469-2.835938zm-4.082031 6.511719-4.941406 47.078125c-1.046875 9.929688-6.289063 18.980469-14.386719 24.824219-8.09375 5.84375-18.332031 7.972656-28.082031 5.839843l-10.515625-2.296874c-9.800782-2.140626-18.238282-8.386719-23.148438-17.132813-4.90625-8.75-5.847656-19.207031-2.566406-28.691406l10.53125-30.476563 4.933594-14.28125c.140625-.410156.289062-.808594.433594-1.191406 9.535156 1.257812 21.625 3.035156 34.125 5.765625 12.703124 2.78125 24.511718 6.246094 33.746093 9.109375-.035156.46875-.074219.953125-.128906 1.453125zm0 0" fill="#3a312a"/><path d="m344.324219 214.363281c-44.949219-9.828125-88.722657 1.179688-117.703125 25.863281l-12.671875 12.824219c-9.515625 11.492188-16.355469 24.964844-19.636719 39.980469-12.84375 58.75 49.433594 45.875 119.441406 61.179688 70.003906 15.304687 121.226563 52.988281 134.070313-5.761719s-33.496094-118.78125-103.5-134.085938zm0 0" fill="#87796f"/><path d="m344.964844 211.433594c-44.433594-9.714844-89.398438.199218-120.285156 26.511718-.066407.054688-.128907.113282-.191407.171876l-12.671875 12.828124c-.058594.0625-.121094.125-.175781.191407-10.128906 12.234375-16.945313 26.113281-20.257813 41.25-3.273437 14.980469-1.976562 26.324219 3.964844 34.683593 11.019532 15.503907 35.976563 18.503907 67.582032 22.308594 15.300781 1.839844 32.644531 3.925782 50.183593 7.761719 17.535157 3.832031 34.171875 9.171875 48.84375 13.886719 20.554688 6.597656 38.175781 12.257812 52.53125 12.257812 6.8125 0 12.894531-1.277344 18.195313-4.332031 8.886718-5.117187 14.800781-14.882813 18.078125-29.863281 13.167969-60.269532-34.289063-122.027344-105.796875-137.65625zm99.929687 136.375c-2.890625 13.234375-7.867187 21.722656-15.207031 25.949218-14.179688 8.164063-37.003906.835938-65.898438-8.4375-14.804687-4.753906-31.582031-10.140624-49.398437-14.039062-17.816406-3.894531-35.3125-6-50.746094-7.855469-30.132812-3.628906-53.929687-6.492187-63.410156-19.828125-4.90625-6.902344-5.882813-16.691406-2.992187-29.925781 3.09375-14.152344 9.464843-27.140625 18.933593-38.601563l12.488281-12.640624c29.464844-25.042969 72.449219-34.441407 115.019532-25.136719 68.273437 14.925781 113.679687 73.476562 101.210937 130.515625zm0 0" fill="#3a312a"/><path d="m332.800781 362.085938c-.261719 1.292968-.472656 2.335937-.476562 2.453124l-4.949219 47.089844c-1.046875 9.925782-6.277344 18.980469-14.371094 24.824219-7.511718 5.421875-16.902344 7.648437-26.011718 6.230469.597656.171875 1.21875.328125 1.824218.460937l10.511719 2.296875c9.75 2.132813 19.980469.007813 28.074219-5.839844 8.113281-5.839843 13.347656-14.890624 14.390625-24.820312l4.949219-47.089844c.046874-.480468.089843-.964844.113281-1.449218-4.566407-1.40625-9.253907-2.800782-14.054688-4.15625zm0 0" fill="#decaad"/><path d="m343.691406 217.292969c-3.496094-.765625-7-1.410157-10.496094-1.90625 62.359376 18.359375 102.511719 73.773437 90.691407 127.835937-2.890625 13.230469-7.878907 21.71875-15.207031 25.933594-6.039063 3.46875-13.640626 4.140625-22.59375 3.0625 18.449218 5.222656 33.3125 7.46875 43.597656 1.527344 7.347656-4.207032 12.316406-12.703125 15.207031-25.929688 12.472656-57.054687-32.929687-115.601562-101.199219-130.523437zm0 0" fill="#695b51"/></svg>